<?xml version="1.0" encoding="UTF-8"?>
<svg viewBox="0 0 390.32602 161.46454" xmlns="http://www.w3.org/2000/svg">
 <g transform="translate(-17.435 50.989)">
  <path class="fil0" d="m335.06 45.852h32.893v5.493h-2.2618c-1.3571 0-2.5203 0.12925-3.6189 0.45237-0.64623 0.19387-1.1632 0.51699-1.6156 1.034-0.38775 0.45237-0.58162 0.96935-0.58162 1.3571 0 1.034 0.84011 2.5203 2.4557 4.5236l9.3058 11.761 10.921-11.761c2.068-2.1326 3.0373-3.8128 3.0373-4.9114 0-0.77548-0.38774-1.3571-1.034-1.8095-0.71086-0.45236-2.1972-0.64624-4.5236-0.64624h-2.4557v-5.493h27.853v5.493c-2.7142 0.12925-5.1053 0.71086-7.044 1.6802-2.0033 1.034-4.3944 2.9081-7.044 5.6869l-14.993 15.574 18.676 21.197 0.71086 0.96935c1.8095 2.3264 3.8774 4.2005 6.1392 5.6869 1.2278 0.77549 3.2312 1.2278 5.8807 1.2925v5.493h-32.118v-5.493h2.7788c2.068 0 3.425-0.12924 4.0067-0.38774 0.90473-0.45236 1.4217-1.1632 1.4217-2.1972 0-0.96935-1.0986-2.7788-3.1666-5.3638l-11.891-14.54-13.248 14.54-1.2925 1.6156-0.71086 0.77548c-1.0986 1.1632-1.6802 2.1972-1.6802 3.1019 0 0.84011 0.32312 1.4863 1.034 1.8741 0.64623 0.38774 2.1972 0.58161 4.5236 0.58161h2.6496v5.493h-27.53v-5.493c2.1326-0.0646 3.8128-0.25849 5.0406-0.71086 1.1632-0.38774 2.3911-1.034 3.4897-1.8741 2.0033-1.6156 3.3604-2.8434 4.2652-3.7482l19.129-19.71-16.285-18.676c-2.0033-2.3264-3.6189-3.942-4.8468-4.8468-1.1632-0.90473-2.3911-1.6156-3.4897-1.9387-1.1632-0.38774-2.7142-0.58161-4.7821-0.58161v-5.493zm-92.089 0 24.751-0.96935v42.07c0 3.6835 0.51699 6.6562 1.551 8.8534 0.96936 2.1326 2.5849 3.8128 4.6529 5.0406 2.1326 1.1632 4.5883 1.8095 7.4317 1.8095 3.4897 0 7.4317-0.96935 11.891-2.8434 4.3944-1.8741 8.7888-4.6529 13.183-8.3364v-30.438c0-3.2312-0.19387-5.3638-0.71086-6.3977-0.45236-0.96935-1.3571-1.8095-2.5203-2.3911-1.2278-0.58161-3.1666-0.90473-5.7515-0.90473h-4.7821v-5.493l24.751-0.96935v48.726c0 3.1666 0.25849 5.2991 0.77548 6.527 0.58161 1.1632 1.3571 2.0033 2.3264 2.5203 1.034 0.51699 3.1019 0.77548 6.2038 0.77548h2.0033v5.493l-21.649 1.0986v-12.085c-6.01 4.7821-11.18 8.0133-15.639 9.8228s-8.9827 2.7142-13.571 2.7142c-3.3604 0-6.3331-0.45237-8.8534-1.3571-2.4557-0.90473-4.7175-2.3264-6.5916-4.1359s-3.3604-4.0067-4.3298-6.5916c-1.034-2.5849-1.4863-5.2991-1.4863-8.2072v-29.791c0-2.6496-0.2585-4.459-0.71086-5.5576-0.51699-1.034-1.2925-1.9387-2.3911-2.5849-1.0986-0.58161-2.6496-0.90473-4.5883-0.90473h-5.9454v-5.493zm-80.004 9.435v-5.493c3.8774-0.45236 6.7855-0.96935 8.7242-1.6156 1.8741-0.58161 4.6529-1.8741 8.2718-3.8774h4.7175v12.408c5.7515-4.8468 10.663-8.1426 14.734-9.8228 4.0713-1.7448 8.2072-2.5849 12.343-2.5849 3.6189 0 6.7855 0.58161 9.4997 1.7448 2.7788 1.2278 5.0406 2.9081 6.7208 4.9114s2.8434 4.3944 3.425 6.9793c0.32311 1.6156 0.51698 4.0713 0.51698 7.3025v28.757c0 3.425 0.2585 5.6869 0.77549 6.6562 0.45236 0.96936 1.2925 1.6802 2.3911 2.1326 1.034 0.38774 3.7482 0.64623 8.0133 0.64623v5.493h-33.669v-5.493h1.8741c3.1019 0 5.2345-0.32311 6.3977-0.8401 1.0986-0.58161 1.9387-1.4217 2.4557-2.5203 0.45236-1.034 0.71085-3.2958 0.71085-6.6562v-24.04c0-4.976-0.38774-8.4011-1.2278-10.34-0.77548-1.8741-2.1326-3.4897-4.0713-4.6529s-4.3944-1.8095-7.3671-1.8095c-3.5543 0-7.3025 0.90473-11.309 2.7142s-7.8841 4.459-11.632 8.0133v30.115c0 3.3604 0.25849 5.6869 0.71086 6.7855 0.51699 1.1632 1.4217 2.0033 2.4557 2.5849 0.77548 0.38774 2.9081 0.64623 6.3331 0.64623h1.8741v5.493h-33.669v-5.493h1.6156c3.2958 0 5.493-0.32311 6.6562-0.8401s2.0033-1.551 2.4557-2.9081c0.2585-0.64624 0.38774-3.1019 0.38774-7.1732v-37.223h-11.115zm-145.53-37.546h35.349v5.5576h-3.2312c-2.5203 0-4.3298 0.25849-5.3638 0.71086-1.034 0.51699-1.8095 1.1632-2.2618 2.1326-0.51699 0.90473-0.71086 2.5203-0.71086 4.9114v63.525c0 2.9081 0.06462 4.6529 0.32312 5.2345 0.25849 0.77548 0.84011 1.3571 1.6802 1.7448 0.58161 0.2585 2.3911 0.38774 5.2991 0.38774h4.9114c5.6222 0 10.469-0.8401 14.605-2.4557 4.1359-1.6802 7.7548-4.0067 10.728-7.1732 2.9727-3.1019 5.8807-7.7548 8.6596-13.894l5.8807 1.9387-10.211 28.564h-65.657v-5.493h2.9081c2.7788 0 4.6529-0.25849 5.6222-0.71086 0.96935-0.51698 1.6802-1.2925 2.1972-2.3911s0.77548-3.0373 0.77548-5.7515v-61.974c0-3.1666-0.19387-5.2345-0.71086-6.3331-0.45236-1.034-1.1632-1.8095-2.068-2.2618s-2.8434-0.71086-5.8161-0.71086h-2.9081v-5.5576zm93.446 89.051c-3.2958 1.3571-7.3025 2.068-12.085 2.1326 18.676-7.8194-14.863-68.372 38.839-95.384-4.3298 25.397 12.86 34.121 11.374 55.059-1.0986 15.704 0.71086 26.819 8.4011 39.743-15.51-6.2685-28.887-6.5916-46.529-1.551zm4.7821-2.6496c14.799-9.3058 26.108-8.918 40.907 3.425-13.636-13.054-11.18-31.407-10.986-39.033 0.71085-23.588-17.448-29.081-8.2718-54.607-23.329 12.666 2.1326 72.766-21.649 90.214z" fill-rule="evenodd"/>
  <g transform="matrix(.40931 0 0 .40931 -195.76 96.436)">
   <path d="m919.01-249.6c0 61.075-55.529 110.59-124.03 110.59-34.068 0-64.927-12.247-87.343-32.072-22.655-20.037-36.684-47.814-36.684-78.513 0-61.075 55.529-110.59 124.03-110.59s124.03 49.511 124.03 110.59z"/>
   <path transform="matrix(.55192 0 0 .55192 765.21 -608.91)" d="m177.14 592.36c0 31.559-25.584 57.143-57.143 57.143s-57.143-25.584-57.143-57.143 25.584-57.143 57.143-57.143 57.143 25.584 57.143 57.143z" fill="#fff"/>
   <path transform="matrix(.36933 0 0 .42069 786.73 -531.97)" d="m177.14 592.36c0 31.559-25.584 57.143-57.143 57.143s-57.143-25.584-57.143-57.143 25.584-57.143 57.143-57.143 57.143 25.584 57.143 57.143z" stroke="#000" stroke-width=".1"/>
   <path transform="matrix(.13829 0 0 .13829 817.3 -376.87)" d="m177.14 592.36c0 31.559-25.584 57.143-57.143 57.143s-57.143-25.584-57.143-57.143 25.584-57.143 57.143-57.143 57.143 25.584 57.143 57.143z" fill="#fff" stroke="#000" stroke-width=".1"/>
   <path transform="matrix(.55192 0 0 .55192 691.58 -608.91)" d="m177.14 592.36c0 31.559-25.584 57.143-57.143 57.143s-57.143-25.584-57.143-57.143 25.584-57.143 57.143-57.143 57.143 25.584 57.143 57.143z" fill="#fff"/>
   <path transform="matrix(.36933 0 0 .42069 713.1 -531.97)" d="m177.14 592.36c0 31.559-25.584 57.143-57.143 57.143s-57.143-25.584-57.143-57.143 25.584-57.143 57.143-57.143 57.143 25.584 57.143 57.143z" stroke="#000" stroke-width=".1"/>
   <path transform="matrix(.13829 0 0 .13829 743.66 -376.87)" d="m177.14 592.36c0 31.559-25.584 57.143-57.143 57.143s-57.143-25.584-57.143-57.143 25.584-57.143 57.143-57.143 57.143 25.584 57.143 57.143z" fill="#fff" stroke="#000" stroke-width=".1"/>
   <g transform="matrix(1.4999 -.1307 .1307 1.4999 -144.6 234.94)">
    <path d="m597.88-264.92c4.0316-4.3589 27.749-9.8964 54.348-5.7574 23.844 3.7103 47.105 13.85 49.684 24.436 1.8865 7.7432-18.579 37.476-47.929 37.526-35.562 0.0599-57.72-34.787-58.595-41.069-0.69673-5.0049-2.2626-9.9948 2.492-15.135z" fill="#ecb63a" stroke="#9e720b" stroke-width="1.7165"/>
    <path d="m602.85-252.32c21.894 17.468 21.147 16.471 29.994 18.876 13.074 3.5539 29.293 4.5107 44.116 3.5033 0 0-10.865 6.9696-22.178 6.9074-5.4482-0.0296-15.099-1.454-20.853-4.1534-15.016-7.0442-27.612-19.863-31.078-25.133z" fill="#876108"/>
   </g>
  </g>
 </g>
</svg>
